<?xml version="1.0" encoding="utf-8"?>
<!-- Generator: Adobe Illustrator 16.2.0, SVG Export Plug-In . SVG Version: 6.00 Build 0)  -->
<!DOCTYPE svg PUBLIC "-//W3C//DTD SVG 1.1//EN" "http://www.w3.org/Graphics/SVG/1.1/DTD/svg11.dtd">
<svg version="1.1" id="Layer_1" xmlns:sketch="http://www.bohemiancoding.com/sketch/ns"
	 xmlns="http://www.w3.org/2000/svg" xmlns:xlink="http://www.w3.org/1999/xlink" x="0px" y="0px" width="48px" height="48px"
	 viewBox="0 0 48 48" enable-background="new 0 0 48 48" xml:space="preserve">
<path fill="#B0BEC5" d="M24,0.75c-12.979,0-23.5,10.521-23.5,23.5c0,12.979,10.521,23.5,23.5,23.5c12.979,0,23.5-10.521,23.5-23.5
	C47.5,11.271,36.979,0.75,24,0.75z"/>
<g>
	<path fill="#FFFFFF" d="M16.208,20.861c0.895,0,1.727-0.263,2.431-0.707c0.225-1.461,1.01-2.739,2.127-3.609
		c0.005-0.085,0.014-0.168,0.014-0.256c0-2.524-2.047-4.572-4.571-4.572s-4.572,2.048-4.572,4.572
		C11.636,18.813,13.684,20.861,16.208,20.861z"/>
	<circle fill="#FFFFFF" cx="24.229" cy="21.341" r="4.571"/>
	<path fill="#FFFFFF" d="M29.861,20.428c0.587,0.273,1.24,0.432,1.932,0.432c2.524,0,4.572-2.047,4.572-4.57
		c0-2.526-2.048-4.572-4.572-4.572c-2.502,0-4.53,2.009-4.568,4.502C28.667,17.122,29.677,18.651,29.861,20.428z"/>
	<path fill="#FFFFFF" d="M20.314,25.931c-1.035-0.993-1.69-2.372-1.738-3.902c-0.143-0.011-0.285-0.021-0.429-0.021h-3.879
		c-3.229,0-5.854,2.625-5.854,5.853v4.744l0.012,0.075l0.326,0.102c2.472,0.771,4.677,1.127,6.594,1.238v-1.432
		C15.346,29.443,17.444,26.784,20.314,25.931z"/>
	<path fill="#FFFFFF" d="M26.169,26.726H22.29c-3.228,0-5.854,2.626-5.854,5.854v4.745l0.012,0.074l0.327,0.103
		c3.079,0.961,5.756,1.282,7.959,1.282c4.303,0,6.795-1.226,6.95-1.306l0.305-0.153h0.031v-4.745
		C32.022,29.352,29.396,26.726,26.169,26.726z"/>
	<path fill="#FFFFFF" d="M33.732,22.007h-3.849c-0.041,1.539-0.699,2.927-1.739,3.924c2.87,0.854,4.969,3.513,4.969,6.656v1.461
		c3.801-0.14,5.99-1.216,6.135-1.288l0.304-0.156h0.034v-4.744C39.586,24.632,36.96,22.007,33.732,22.007z"/>
</g>
</svg>
