<?xml version="1.0" encoding="utf-8"?>
<!-- Generator: Adobe Illustrator 16.2.0, SVG Export Plug-In . SVG Version: 6.00 Build 0)  -->
<!DOCTYPE svg PUBLIC "-//W3C//DTD SVG 1.1//EN" "http://www.w3.org/Graphics/SVG/1.1/DTD/svg11.dtd">
<svg version="1.1" id="Layer_1" xmlns:sketch="http://www.bohemiancoding.com/sketch/ns"
	 xmlns="http://www.w3.org/2000/svg" xmlns:xlink="http://www.w3.org/1999/xlink" x="0px" y="0px" width="48px" height="48px"
	 viewBox="0 0 48 48" enable-background="new 0 0 48 48" xml:space="preserve">
<path fill="#B0BEC5" d="M24,0.75c-12.979,0-23.5,10.521-23.5,23.5c0,12.979,10.521,23.5,23.5,23.5c12.979,0,23.5-10.521,23.5-23.5
	C47.5,11.271,36.979,0.75,24,0.75z"/>
<g>
	<path fill="#FFFFFF" d="M26.159,28.577c0,0.341-0.277,0.618-0.616,0.618h-3.085c-0.34,0-0.617-0.277-0.617-0.618V26.41
		l-11.411-2.591v10.331c0,0.681,0.552,1.231,1.233,1.231h24.673c0.681,0,1.232-0.551,1.232-1.231V23.828l-11.41,2.584V28.577z
		 M26.159,28.577"/>
	<path fill="#FFFFFF" d="M36.337,16.877H11.664c-0.681,0-1.233,0.552-1.233,1.234v4.126l11.411,2.593v-1.187
		c0-0.341,0.276-0.617,0.617-0.617h3.085c0.339,0,0.616,0.276,0.616,0.617v1.187l11.41-2.583v-4.136
		C37.569,17.429,37.018,16.877,36.337,16.877L36.337,16.877z M36.337,16.877"/>
	<path fill="#FFFFFF" d="M19.24,14.015c0-0.923,0.75-1.671,1.671-1.671h6.178c0.922,0,1.671,0.748,1.671,1.671v1.629h1.451v-1.629
		c0-1.722-1.401-3.122-3.122-3.122h-6.178c-1.721,0-3.121,1.4-3.121,3.122v1.629h1.45V14.015z M19.24,14.015"/>
</g>
</svg>
