<?xml version="1.0" encoding="utf-8"?>
<!-- Generator: Adobe Illustrator 16.2.0, SVG Export Plug-In . SVG Version: 6.00 Build 0)  -->
<!DOCTYPE svg PUBLIC "-//W3C//DTD SVG 1.1//EN" "http://www.w3.org/Graphics/SVG/1.1/DTD/svg11.dtd">
<svg version="1.1" id="Layer_1" xmlns:sketch="http://www.bohemiancoding.com/sketch/ns"
	 xmlns="http://www.w3.org/2000/svg" xmlns:xlink="http://www.w3.org/1999/xlink" x="0px" y="0px" width="48px" height="48px"
	 viewBox="0 0 48 48" enable-background="new 0 0 48 48" xml:space="preserve">
<path fill="#B0BEC5" d="M24,0.75c-12.979,0-23.5,10.521-23.5,23.5c0,12.979,10.521,23.5,23.5,23.5c12.979,0,23.5-10.521,23.5-23.5
	C47.5,11.271,36.979,0.75,24,0.75z"/>
<g>
	<g>
		<path fill="#FFFFFF" d="M19.064,18.248c-1.633-0.006-2.959-1.336-2.959-2.97c0-0.837,0.348-1.595,0.907-2.135l-0.687-0.646
			c-0.125-0.107-0.278-0.16-0.431-0.16c-0.17,0-0.34,0.065-0.469,0.194l-8.184,8.198c-0.233,0.234-0.257,0.605-0.056,0.869
			l3.012,3.438c0.06,0.078,0.1,0.17,0.122,0.268c0.122,0.563,0.333,1.162,0.612,1.781l0.282-0.281
			c0.494-0.494,1.15-0.768,1.849-0.768c0.697,0,1.355,0.273,1.849,0.766c0.002,0.002,0.005,0.006,0.008,0.01l0.01,0.012
			c0.34,0.34,0.571,0.762,0.682,1.217c0.391-0.221,0.833-0.346,1.294-0.346c0.698,0,1.353,0.271,1.845,0.764l0.012,0.012
			l0.004,0.004c0.493,0.492,0.765,1.15,0.765,1.85c0,0.322-0.061,0.637-0.173,0.93c0.564,0.078,1.087,0.33,1.497,0.742l0.012,0.012
			c0.363,0.363,0.595,0.807,0.699,1.275l5.936,5.936c0.317,0.318,0.742,0.486,1.166,0.486c0.337,0,0.674-0.107,0.955-0.328
			c0.748-0.594,0.793-1.695,0.138-2.354l-5.741-5.74c-0.297-0.297-0.297-0.777,0-1.072c0.149-0.15,0.347-0.227,0.543-0.227
			s0.394,0.076,0.543,0.227l7.306,7.305c0.317,0.316,0.742,0.484,1.167,0.484c0.336,0,0.674-0.107,0.952-0.328
			c0.751-0.592,0.796-1.695,0.141-2.35l-7.339-7.338c-0.301-0.301-0.301-0.789,0-1.086c0.148-0.15,0.343-0.225,0.536-0.225
			c0.195,0,0.39,0.074,0.537,0.225l5.708,5.707c0.318,0.316,0.744,0.484,1.168,0.484c0.338,0,0.673-0.104,0.954-0.326
			c0.748-0.594,0.795-1.695,0.139-2.352L24.278,18.314L19.064,18.248z M19.064,18.248"/>
		<path fill="#FFFFFF" d="M23.137,40.811c0.461,0,0.921-0.199,1.237-0.598c0.5-0.633,0.414-1.549-0.158-2.123l-0.503-0.5
			c-0.044,0.602-0.294,1.195-0.755,1.656L22.304,39.9c-0.124,0.123-0.258,0.234-0.402,0.33l0.123,0.121
			C22.331,40.656,22.734,40.811,23.137,40.811L23.137,40.811z M23.137,40.811"/>
		<path fill="#FFFFFF" d="M31.405,11.943c-0.128-0.129-0.299-0.194-0.468-0.194c-0.154,0-0.307,0.052-0.431,0.159l-0.548,0.312
			c0,0.001-0.001,0.002-0.003,0.002l-10.881,1.496c-0.857,0-1.559,0.702-1.559,1.56c0,0.857,0.702,1.558,1.559,1.558l5.804,0.073
			c0,0,8.993,8.999,10.992,10.999c1.57-2.004,2.972-4.098,3.37-5.922c0.021-0.098,0.063-0.188,0.124-0.268l0.28-0.708
			c0.202-0.263,0.178-0.635-0.055-0.87L31.405,11.943z M31.405,11.943"/>
	</g>
	<path fill="#FFFFFF" d="M11.283,30.455c0.235,0.234,0.543,0.35,0.85,0.35c0.308,0,0.616-0.115,0.85-0.35l0.941-0.939
		c0.471-0.473,0.471-1.232,0-1.701l-0.012-0.016c-0.235-0.232-0.542-0.35-0.85-0.35s-0.615,0.117-0.851,0.35l-0.941,0.943
		c-0.469,0.469-0.469,1.23,0,1.699L11.283,30.455z M11.283,30.455"/>
	<path fill="#FFFFFF" d="M14.692,33.75c0.308,0,0.616-0.119,0.85-0.354l2.226-2.227c0.469-0.467,0.469-1.23,0-1.699l-0.012-0.012
		c-0.235-0.234-0.542-0.354-0.851-0.354s-0.616,0.119-0.85,0.354l-2.226,2.225c-0.469,0.469-0.469,1.232,0,1.701l0.012,0.012
		C14.077,33.631,14.385,33.75,14.692,33.75L14.692,33.75z M14.692,33.75"/>
	<path fill="#FFFFFF" d="M16.728,36.145c0.235,0.234,0.543,0.352,0.852,0.352c0.307,0,0.615-0.117,0.851-0.352l1.44-1.439
		c0.468-0.469,0.468-1.232,0-1.701l-0.014-0.012c-0.234-0.234-0.542-0.354-0.85-0.354s-0.615,0.119-0.851,0.354l-1.44,1.439
		c-0.469,0.471-0.469,1.232,0,1.701L16.728,36.145z M16.728,36.145"/>
	<path fill="#FFFFFF" d="M21.305,38.904l0.655-0.658c0.469-0.469,0.469-1.229,0-1.699l-0.013-0.012
		c-0.235-0.236-0.542-0.352-0.85-0.352s-0.615,0.115-0.85,0.352l-0.655,0.654c-0.47,0.469-0.47,1.23,0,1.701l0.013,0.014
		c0.234,0.234,0.542,0.352,0.85,0.352C20.762,39.256,21.07,39.139,21.305,38.904L21.305,38.904z M21.305,38.904"/>
</g>
</svg>
