<?xml version="1.0" encoding="utf-8"?>
<!-- Generator: Adobe Illustrator 16.2.0, SVG Export Plug-In . SVG Version: 6.00 Build 0)  -->
<!DOCTYPE svg PUBLIC "-//W3C//DTD SVG 1.1//EN" "http://www.w3.org/Graphics/SVG/1.1/DTD/svg11.dtd">
<svg version="1.1" id="Layer_1" xmlns:sketch="http://www.bohemiancoding.com/sketch/ns"
	 xmlns="http://www.w3.org/2000/svg" xmlns:xlink="http://www.w3.org/1999/xlink" x="0px" y="0px" width="48px" height="48px"
	 viewBox="0 0 48 48" enable-background="new 0 0 48 48" xml:space="preserve">
<path fill="#B0BEC5" d="M24,0.75c-12.979,0-23.5,10.521-23.5,23.5s10.521,23.5,23.5,23.5c12.979,0,23.5-10.521,23.5-23.5
	S36.979,0.75,24,0.75z"/>
<g>
	<g>
		<path fill="#FFFFFF" d="M32.456,37.872l0.992,1.707c-2.732,1.576-5.754,2.387-8.819,2.387c-1.533,0-3.074-0.205-4.596-0.617
			c-4.534-1.225-8.307-4.137-10.632-8.197C4.625,24.796,7.507,14.01,15.813,9.119l1.006,1.701
			c-7.386,4.347-9.947,13.929-5.708,21.355c2.059,3.605,5.412,6.188,9.437,7.273C24.59,40.536,28.815,39.979,32.456,37.872
			L32.456,37.872z"/>
	</g>
	<path fill="#FFFFFF" d="M38.345,17.774l-6.377,3.578c0.865,1.641,1.567,3.288,2.087,4.868l5.634-3.162
		C39.597,21.27,39.156,19.475,38.345,17.774L38.345,17.774z M38.345,17.774"/>
	<path fill="#FFFFFF" d="M25.184,31.2l7.221-4.053c-0.497-1.568-1.191-3.232-2.058-4.884l-8.254,4.633
		C23.087,28.56,24.138,30.002,25.184,31.2L25.184,31.2z M25.184,31.2"/>
	<path fill="#FFFFFF" d="M32.14,35.128c0.422-0.235,0.732-0.701,0.923-1.38c0.338-1.195,0.264-2.858-0.158-4.751l-6.403,3.595
		C28.838,34.841,30.984,35.777,32.14,35.128L32.14,35.128z M32.14,35.128"/>
	<path fill="#FFFFFF" d="M33.624,12.253l-5.63,3.16c1.083,1.275,2.118,2.735,3.063,4.32l6.377-3.579
		C36.406,14.574,35.103,13.263,33.624,12.253L33.624,12.253z"/>
	<path fill="#FFFFFF" d="M20.472,27.807l-6.378,3.579c1.029,1.58,2.332,2.889,3.811,3.899l5.629-3.16
		C22.452,30.852,21.416,29.392,20.472,27.807L20.472,27.807z M20.472,27.807"/>
	<path fill="#FFFFFF" d="M26.706,14.005l5.043-2.83c-3.18-1.512-6.889-1.805-10.353-0.662c1.113,0.282,2.337,0.939,3.616,1.959
		C25.579,12.924,26.147,13.438,26.706,14.005L26.706,14.005z M26.706,14.005"/>
	<path fill="#FFFFFF" d="M16.72,13.139c-2.779,2.361-4.459,5.679-4.824,9.178l5.047-2.833C16.342,17.056,16.271,14.737,16.72,13.139
		L16.72,13.139z M16.72,13.139"/>
	<path fill="#FFFFFF" d="M39.631,25.222l-5.046,2.833c0.602,2.427,0.716,4.6,0.268,6.196c-0.015,0.052-0.03,0.099-0.043,0.147
		C37.587,32.038,39.268,28.722,39.631,25.222L39.631,25.222z"/>
	<path fill="#FFFFFF" d="M26.516,35.065c-0.566-0.452-1.134-0.966-1.693-1.53l-5.042,2.829c3.18,1.511,6.888,1.803,10.352,0.66
		C29.019,36.743,27.795,36.086,26.516,35.065L26.516,35.065z M26.516,35.065"/>
	<path fill="#FFFFFF" d="M17.474,21.319l-5.635,3.161c0.093,1.79,0.531,3.584,1.345,5.286l6.377-3.58
		C18.696,24.545,17.994,22.897,17.474,21.319L17.474,21.319z M17.474,21.319"/>
	<path fill="#FFFFFF" d="M18.624,18.541l6.404-3.595c-2.338-2.251-4.484-3.185-5.639-2.536c-0.422,0.236-0.734,0.701-0.925,1.377
		C18.129,14.985,18.203,16.648,18.624,18.541L18.624,18.541z M18.624,18.541"/>
	<path fill="#FFFFFF" d="M26.346,16.338l-7.221,4.054c0.496,1.568,1.19,3.231,2.058,4.884l8.253-4.634
		C28.442,18.979,27.39,17.537,26.346,16.338L26.346,16.338z M26.346,16.338"/>
</g>
</svg>
